<svg width="245" height="55" viewBox="0 0 245 55" fill="none" xmlns="http://www.w3.org/2000/svg">
<rect width="245" height="55" rx="3" fill="url(#paint0_linear)"/>
<path d="M89.2148 35V22.2031H93.3369C94.4678 22.2031 95.4844 22.4609 96.3867 22.9766C97.2891 23.4863 97.9922 24.21 98.4961 25.1475C99.0059 26.0791 99.2637 27.125 99.2695 28.2852V28.874C99.2695 30.0459 99.0205 31.0977 98.5225 32.0293C98.0303 32.9551 97.333 33.6816 96.4307 34.209C95.5342 34.7305 94.5322 34.9941 93.4248 35H89.2148ZM92.2998 24.585V32.627H93.3721C94.2568 32.627 94.9365 32.3135 95.4111 31.6865C95.8857 31.0537 96.123 30.1162 96.123 28.874V28.3203C96.123 27.084 95.8857 26.1523 95.4111 25.5254C94.9365 24.8984 94.2451 24.585 93.3369 24.585H92.2998ZM111.688 28.8652C111.688 30.1133 111.457 31.2178 110.994 32.1787C110.531 33.1396 109.872 33.8809 109.017 34.4023C108.167 34.918 107.197 35.1758 106.107 35.1758C105.018 35.1758 104.051 34.9268 103.207 34.4287C102.363 33.9248 101.704 33.207 101.229 32.2754C100.761 31.3438 100.515 30.2744 100.491 29.0674V28.3467C100.491 27.0928 100.72 25.9883 101.177 25.0332C101.64 24.0723 102.299 23.3311 103.154 22.8096C104.016 22.2881 104.994 22.0273 106.09 22.0273C107.174 22.0273 108.141 22.2852 108.99 22.8008C109.84 23.3164 110.499 24.0518 110.968 25.0068C111.442 25.9561 111.683 27.0459 111.688 28.2764V28.8652ZM108.551 28.3291C108.551 27.0576 108.337 26.0938 107.909 25.4375C107.487 24.7754 106.881 24.4443 106.09 24.4443C104.543 24.4443 103.726 25.6045 103.638 27.9248L103.629 28.8652C103.629 30.1191 103.837 31.083 104.253 31.7568C104.669 32.4307 105.287 32.7676 106.107 32.7676C106.887 32.7676 107.487 32.4365 107.909 31.7744C108.331 31.1123 108.545 30.1602 108.551 28.918V28.3291ZM123.967 35H120.899L116.364 27.0371V35H113.279V22.2031H116.364L120.891 30.166V22.2031H123.967V35ZM133.345 32.6094H129.117L128.379 35H125.083L129.776 22.2031H132.677L137.405 35H134.092L133.345 32.6094ZM129.855 30.2275H132.606L131.227 25.7891L129.855 30.2275ZM147.337 24.585H143.496V35H140.411V24.585H136.641V22.2031H147.337V24.585ZM156.583 29.5771H151.731V32.627H157.462V35H148.646V22.2031H157.479V24.585H151.731V27.2832H156.583V29.5771Z" fill="white"/>
<defs>
<linearGradient id="paint0_linear" x1="-45.7461" y1="-2.89151e-07" x2="84.1037" y2="175.585" gradientUnits="userSpaceOnUse">
<stop stop-color="#4BD8B5"/>
<stop offset="1" stop-color="#49D6DF"/>
</linearGradient>
</defs>
</svg>
