<svg width="245" height="55" viewBox="0 0 245 55" fill="none" xmlns="http://www.w3.org/2000/svg">
<rect width="245" height="55" rx="3" fill="url(#paint0_linear)"/>
<path d="M29.7744 30.667C29.7334 31.5576 29.4932 32.3457 29.0537 33.0312C28.6143 33.7109 27.9961 34.2383 27.1992 34.6133C26.4082 34.9883 25.5029 35.1758 24.4834 35.1758C22.8018 35.1758 21.4775 34.6279 20.5107 33.5322C19.5439 32.4365 19.0605 30.8896 19.0605 28.8916V28.2588C19.0605 27.0049 19.2773 25.9092 19.7109 24.9717C20.1504 24.0283 20.7803 23.3018 21.6006 22.792C22.4209 22.2764 23.3701 22.0186 24.4482 22.0186C26.001 22.0186 27.249 22.4287 28.1924 23.249C29.1357 24.0635 29.6719 25.1885 29.8008 26.624H26.7246C26.7012 25.8447 26.5049 25.2852 26.1357 24.9453C25.7666 24.6055 25.2041 24.4355 24.4482 24.4355C23.6807 24.4355 23.1182 24.7227 22.7607 25.2969C22.4033 25.8711 22.2158 26.7881 22.1982 28.0479V28.9531C22.1982 30.3184 22.3682 31.2939 22.708 31.8799C23.0537 32.4658 23.6455 32.7588 24.4834 32.7588C25.1924 32.7588 25.7344 32.5918 26.1094 32.2578C26.4844 31.9238 26.6836 31.3936 26.707 30.667H29.7744ZM41.9297 35H38.8623V29.6562H34.3184V35H31.2334V22.2031H34.3184V27.2832H38.8623V22.2031H41.9297V35ZM54.7266 28.8652C54.7266 30.1133 54.4951 31.2178 54.0322 32.1787C53.5693 33.1396 52.9102 33.8809 52.0547 34.4023C51.2051 34.918 50.2354 35.1758 49.1455 35.1758C48.0557 35.1758 47.0889 34.9268 46.2451 34.4287C45.4014 33.9248 44.7422 33.207 44.2676 32.2754C43.7988 31.3438 43.5527 30.2744 43.5293 29.0674V28.3467C43.5293 27.0928 43.7578 25.9883 44.2148 25.0332C44.6777 24.0723 45.3369 23.3311 46.1924 22.8096C47.0537 22.2881 48.0322 22.0273 49.1279 22.0273C50.2119 22.0273 51.1787 22.2852 52.0283 22.8008C52.8779 23.3164 53.5371 24.0518 54.0059 25.0068C54.4805 25.9561 54.7207 27.0459 54.7266 28.2764V28.8652ZM51.5889 28.3291C51.5889 27.0576 51.375 26.0938 50.9473 25.4375C50.5254 24.7754 49.9189 24.4443 49.1279 24.4443C47.5811 24.4443 46.7637 25.6045 46.6758 27.9248L46.667 28.8652C46.667 30.1191 46.875 31.083 47.291 31.7568C47.707 32.4307 48.3252 32.7676 49.1455 32.7676C49.9248 32.7676 50.5254 32.4365 50.9473 31.7744C51.3691 31.1123 51.583 30.1602 51.5889 28.918V28.3291ZM67.1543 28.8652C67.1543 30.1133 66.9229 31.2178 66.46 32.1787C65.9971 33.1396 65.3379 33.8809 64.4824 34.4023C63.6328 34.918 62.6631 35.1758 61.5732 35.1758C60.4834 35.1758 59.5166 34.9268 58.6729 34.4287C57.8291 33.9248 57.1699 33.207 56.6953 32.2754C56.2266 31.3438 55.9805 30.2744 55.957 29.0674V28.3467C55.957 27.0928 56.1855 25.9883 56.6426 25.0332C57.1055 24.0723 57.7646 23.3311 58.6201 22.8096C59.4814 22.2881 60.46 22.0273 61.5557 22.0273C62.6396 22.0273 63.6064 22.2852 64.4561 22.8008C65.3057 23.3164 65.9648 24.0518 66.4336 25.0068C66.9082 25.9561 67.1484 27.0459 67.1543 28.2764V28.8652ZM64.0166 28.3291C64.0166 27.0576 63.8027 26.0938 63.375 25.4375C62.9531 24.7754 62.3467 24.4443 61.5557 24.4443C60.0088 24.4443 59.1914 25.6045 59.1035 27.9248L59.0947 28.8652C59.0947 30.1191 59.3027 31.083 59.7188 31.7568C60.1348 32.4307 60.7529 32.7676 61.5732 32.7676C62.3525 32.7676 62.9531 32.4365 63.375 31.7744C63.7969 31.1123 64.0107 30.1602 64.0166 28.918V28.3291ZM75.3457 31.5986C75.3457 31.1475 75.1846 30.7959 74.8623 30.5439C74.5459 30.292 73.9863 30.0312 73.1836 29.7617C72.3809 29.4922 71.7246 29.2314 71.2148 28.9795C69.5566 28.165 68.7275 27.0459 68.7275 25.6221C68.7275 24.9131 68.9326 24.2891 69.3428 23.75C69.7588 23.2051 70.3447 22.7832 71.1006 22.4844C71.8564 22.1797 72.7061 22.0273 73.6494 22.0273C74.5693 22.0273 75.3926 22.1914 76.1191 22.5195C76.8516 22.8477 77.4199 23.3164 77.8242 23.9258C78.2285 24.5293 78.4307 25.2207 78.4307 26H75.3545C75.3545 25.4785 75.1934 25.0742 74.8711 24.7871C74.5547 24.5 74.124 24.3564 73.5791 24.3564C73.0283 24.3564 72.5918 24.4795 72.2695 24.7256C71.9531 24.9658 71.7949 25.2734 71.7949 25.6484C71.7949 25.9766 71.9707 26.2754 72.3223 26.5449C72.6738 26.8086 73.292 27.084 74.1768 27.3711C75.0615 27.6523 75.7881 27.957 76.3564 28.2852C77.7393 29.082 78.4307 30.1807 78.4307 31.5811C78.4307 32.7002 78.0088 33.5791 77.165 34.2178C76.3213 34.8564 75.1641 35.1758 73.6934 35.1758C72.6562 35.1758 71.7158 34.9912 70.8721 34.6221C70.0342 34.2471 69.4014 33.7373 68.9736 33.0928C68.5518 32.4424 68.3408 31.6953 68.3408 30.8516H71.4346C71.4346 31.5371 71.6104 32.0439 71.9619 32.3721C72.3193 32.6943 72.8965 32.8555 73.6934 32.8555C74.2031 32.8555 74.6045 32.7471 74.8975 32.5303C75.1963 32.3076 75.3457 31.9971 75.3457 31.5986ZM87.9492 29.5771H83.0977V32.627H88.8281V35H80.0127V22.2031H88.8457V24.585H83.0977V27.2832H87.9492V29.5771ZM99.252 27.7578L101.607 22.2031H104.938L100.816 30.4033V35H97.6875V30.4033L93.5742 22.2031H96.8877L99.252 27.7578ZM116.443 28.8652C116.443 30.1133 116.212 31.2178 115.749 32.1787C115.286 33.1396 114.627 33.8809 113.771 34.4023C112.922 34.918 111.952 35.1758 110.862 35.1758C109.772 35.1758 108.806 34.9268 107.962 34.4287C107.118 33.9248 106.459 33.207 105.984 32.2754C105.516 31.3438 105.27 30.2744 105.246 29.0674V28.3467C105.246 27.0928 105.475 25.9883 105.932 25.0332C106.395 24.0723 107.054 23.3311 107.909 22.8096C108.771 22.2881 109.749 22.0273 110.845 22.0273C111.929 22.0273 112.896 22.2852 113.745 22.8008C114.595 23.3164 115.254 24.0518 115.723 25.0068C116.197 25.9561 116.438 27.0459 116.443 28.2764V28.8652ZM113.306 28.3291C113.306 27.0576 113.092 26.0938 112.664 25.4375C112.242 24.7754 111.636 24.4443 110.845 24.4443C109.298 24.4443 108.48 25.6045 108.393 27.9248L108.384 28.8652C108.384 30.1191 108.592 31.083 109.008 31.7568C109.424 32.4307 110.042 32.7676 110.862 32.7676C111.642 32.7676 112.242 32.4365 112.664 31.7744C113.086 31.1123 113.3 30.1602 113.306 28.918V28.3291ZM128.071 22.2031V30.5791C128.071 31.5283 127.869 32.3516 127.465 33.0488C127.061 33.7402 126.48 34.2676 125.725 34.6309C124.969 34.9941 124.075 35.1758 123.044 35.1758C121.485 35.1758 120.258 34.7715 119.361 33.9629C118.465 33.1543 118.008 32.0469 117.99 30.6406V22.2031H121.093V30.7021C121.128 32.1025 121.778 32.8027 123.044 32.8027C123.683 32.8027 124.166 32.627 124.494 32.2754C124.822 31.9238 124.986 31.3525 124.986 30.5615V22.2031H128.071ZM134.76 30.4824H133.09V35H130.005V22.2031H135.041C136.559 22.2031 137.745 22.54 138.601 23.2139C139.456 23.8877 139.884 24.8398 139.884 26.0703C139.884 26.9609 139.702 27.6992 139.339 28.2852C138.981 28.8711 138.419 29.3457 137.651 29.709L140.323 34.8682V35H137.019L134.76 30.4824ZM133.09 28.1006H135.041C135.627 28.1006 136.066 27.9482 136.359 27.6436C136.658 27.333 136.808 26.9023 136.808 26.3516C136.808 25.8008 136.658 25.3701 136.359 25.0596C136.061 24.7432 135.621 24.585 135.041 24.585H133.09V28.1006ZM154.289 29.9023H149.314V35H146.229V22.2031H154.79V24.585H149.314V27.5293H154.289V29.9023ZM161.654 32.6094H157.427L156.688 35H153.393L158.086 22.2031H160.986L165.715 35H162.401L161.654 32.6094ZM158.165 30.2275H160.916L159.536 25.7891L158.165 30.2275ZM170.936 31.5195L173.484 22.2031H176.93L172.623 35H169.248L164.977 22.2031H168.396L170.936 31.5195ZM188.584 28.8652C188.584 30.1133 188.353 31.2178 187.89 32.1787C187.427 33.1396 186.768 33.8809 185.912 34.4023C185.062 34.918 184.093 35.1758 183.003 35.1758C181.913 35.1758 180.946 34.9268 180.103 34.4287C179.259 33.9248 178.6 33.207 178.125 32.2754C177.656 31.3438 177.41 30.2744 177.387 29.0674V28.3467C177.387 27.0928 177.615 25.9883 178.072 25.0332C178.535 24.0723 179.194 23.3311 180.05 22.8096C180.911 22.2881 181.89 22.0273 182.985 22.0273C184.069 22.0273 185.036 22.2852 185.886 22.8008C186.735 23.3164 187.395 24.0518 187.863 25.0068C188.338 25.9561 188.578 27.0459 188.584 28.2764V28.8652ZM185.446 28.3291C185.446 27.0576 185.232 26.0938 184.805 25.4375C184.383 24.7754 183.776 24.4443 182.985 24.4443C181.438 24.4443 180.621 25.6045 180.533 27.9248L180.524 28.8652C180.524 30.1191 180.732 31.083 181.148 31.7568C181.564 32.4307 182.183 32.7676 183.003 32.7676C183.782 32.7676 184.383 32.4365 184.805 31.7744C185.227 31.1123 185.44 30.1602 185.446 28.918V28.3291ZM194.93 30.4824H193.26V35H190.175V22.2031H195.211C196.729 22.2031 197.915 22.54 198.771 23.2139C199.626 23.8877 200.054 24.8398 200.054 26.0703C200.054 26.9609 199.872 27.6992 199.509 28.2852C199.151 28.8711 198.589 29.3457 197.821 29.709L200.493 34.8682V35H197.188L194.93 30.4824ZM193.26 28.1006H195.211C195.797 28.1006 196.236 27.9482 196.529 27.6436C196.828 27.333 196.978 26.9023 196.978 26.3516C196.978 25.8008 196.828 25.3701 196.529 25.0596C196.23 24.7432 195.791 24.585 195.211 24.585H193.26V28.1006ZM205.204 35H202.128V22.2031H205.204V35ZM217.131 24.585H213.29V35H210.205V24.585H206.435V22.2031H217.131V24.585ZM226.377 29.5771H221.525V32.627H227.256V35H218.44V22.2031H227.273V24.585H221.525V27.2832H226.377V29.5771Z" fill="white"/>
<defs>
<linearGradient id="paint0_linear" x1="-45.7461" y1="-2.89151e-07" x2="84.1037" y2="175.585" gradientUnits="userSpaceOnUse">
<stop stop-color="#4BD8B5"/>
<stop offset="1" stop-color="#49D6DF"/>
</linearGradient>
</defs>
</svg>
