<svg width="245" height="55" viewBox="0 0 245 55" fill="none" xmlns="http://www.w3.org/2000/svg">
<rect width="245" height="55" rx="3" fill="url(#paint0_linear)"/>
<path d="M54.2949 32.627H59.665V35H51.21V22.2031H54.2949V32.627ZM68.9023 29.5771H64.0508V32.627H69.7812V35H60.9658V22.2031H69.7988V24.585H64.0508V27.2832H68.9023V29.5771ZM78.3066 32.6094H74.0791L73.3408 35H70.0449L74.7383 22.2031H77.6387L82.3672 35H79.0537L78.3066 32.6094ZM74.8174 30.2275H77.5684L76.1885 25.7891L74.8174 30.2275ZM87.5879 31.5195L90.1367 22.2031H93.582L89.2754 35H85.9004L81.6289 22.2031H85.0479L87.5879 31.5195ZM102.459 29.5771H97.6074V32.627H103.338V35H94.5225V22.2031H103.355V24.585H97.6074V27.2832H102.459V29.5771ZM117.137 29.9023H112.162V35H109.077V22.2031H117.638V24.585H112.162V27.5293H117.137V29.9023ZM126.857 29.5771H122.006V32.627H127.736V35H118.921V22.2031H127.754V24.585H122.006V27.2832H126.857V29.5771ZM136.93 29.5771H132.078V32.627H137.809V35H128.993V22.2031H137.826V24.585H132.078V27.2832H136.93V29.5771ZM139.065 35V22.2031H143.188C144.318 22.2031 145.335 22.4609 146.237 22.9766C147.14 23.4863 147.843 24.21 148.347 25.1475C148.856 26.0791 149.114 27.125 149.12 28.2852V28.874C149.12 30.0459 148.871 31.0977 148.373 32.0293C147.881 32.9551 147.184 33.6816 146.281 34.209C145.385 34.7305 144.383 34.9941 143.275 35H139.065ZM142.15 24.585V32.627H143.223C144.107 32.627 144.787 32.3135 145.262 31.6865C145.736 31.0537 145.974 30.1162 145.974 28.874V28.3203C145.974 27.084 145.736 26.1523 145.262 25.5254C144.787 24.8984 144.096 24.585 143.188 24.585H142.15ZM150.702 35V22.2031H155.299C156.945 22.2031 158.196 22.5049 159.052 23.1084C159.913 23.7119 160.344 24.5879 160.344 25.7363C160.344 26.3984 160.191 26.9639 159.887 27.4326C159.582 27.9014 159.134 28.2471 158.542 28.4697C159.21 28.6455 159.723 28.9736 160.08 29.4541C160.438 29.9346 160.616 30.5205 160.616 31.2119C160.616 32.4658 160.218 33.4092 159.421 34.042C158.63 34.6689 157.455 34.9883 155.896 35H150.702ZM153.787 29.5596V32.627H155.809C156.365 32.627 156.793 32.501 157.092 32.249C157.391 31.9912 157.54 31.6309 157.54 31.168C157.54 30.1016 157.01 29.5654 155.949 29.5596H153.787ZM153.787 27.5381H155.396C156.069 27.5322 156.55 27.4092 156.837 27.1689C157.124 26.9287 157.268 26.5742 157.268 26.1055C157.268 25.5664 157.112 25.1797 156.802 24.9453C156.491 24.7051 155.99 24.585 155.299 24.585H153.787V27.5381ZM169.59 32.6094H165.362L164.624 35H161.328L166.021 22.2031H168.922L173.65 35H170.337L169.59 32.6094ZM166.101 30.2275H168.852L167.472 25.7891L166.101 30.2275ZM184.751 30.667C184.71 31.5576 184.47 32.3457 184.03 33.0312C183.591 33.7109 182.973 34.2383 182.176 34.6133C181.385 34.9883 180.479 35.1758 179.46 35.1758C177.778 35.1758 176.454 34.6279 175.487 33.5322C174.521 32.4365 174.037 30.8896 174.037 28.8916V28.2588C174.037 27.0049 174.254 25.9092 174.688 24.9717C175.127 24.0283 175.757 23.3018 176.577 22.792C177.397 22.2764 178.347 22.0186 179.425 22.0186C180.978 22.0186 182.226 22.4287 183.169 23.249C184.112 24.0635 184.648 25.1885 184.777 26.624H181.701C181.678 25.8447 181.481 25.2852 181.112 24.9453C180.743 24.6055 180.181 24.4355 179.425 24.4355C178.657 24.4355 178.095 24.7227 177.737 25.2969C177.38 25.8711 177.192 26.7881 177.175 28.0479V28.9531C177.175 30.3184 177.345 31.2939 177.685 31.8799C178.03 32.4658 178.622 32.7588 179.46 32.7588C180.169 32.7588 180.711 32.5918 181.086 32.2578C181.461 31.9238 181.66 31.3936 181.684 30.667H184.751ZM190.561 30.2363L189.295 31.625V35H186.21V22.2031H189.295V27.8457L190.367 26.2197L193.127 22.2031H196.941L192.617 27.8633L196.941 35H193.285L190.561 30.2363Z" fill="white"/>
<defs>
<linearGradient id="paint0_linear" x1="-45.7461" y1="-2.89151e-07" x2="84.1037" y2="175.585" gradientUnits="userSpaceOnUse">
<stop stop-color="#4BD8B5"/>
<stop offset="1" stop-color="#49D6DF"/>
</linearGradient>
</defs>
</svg>
