<svg width="194" height="55" viewBox="0 0 194 55" fill="none" xmlns="http://www.w3.org/2000/svg">
<rect width="194" height="55" rx="3" fill="url(#paint0_linear)"/>
<path d="M85.2139 28.9023H80.2393V34H77.1543V21.2031H85.7148V23.585H80.2393V26.5293H85.2139V28.9023ZM94.9346 28.5771H90.083V31.627H95.8135V34H86.998V21.2031H95.8311V23.585H90.083V26.2832H94.9346V28.5771ZM105.007 28.5771H100.155V31.627H105.886V34H97.0703V21.2031H105.903V23.585H100.155V26.2832H105.007V28.5771ZM107.143 34V21.2031H111.265C112.396 21.2031 113.412 21.4609 114.314 21.9766C115.217 22.4863 115.92 23.21 116.424 24.1475C116.934 25.0791 117.191 26.125 117.197 27.2852V27.874C117.197 29.0459 116.948 30.0977 116.45 31.0293C115.958 31.9551 115.261 32.6816 114.358 33.209C113.462 33.7305 112.46 33.9941 111.353 34H107.143ZM110.228 23.585V31.627H111.3C112.185 31.627 112.864 31.3135 113.339 30.6865C113.813 30.0537 114.051 29.1162 114.051 27.874V27.3203C114.051 26.084 113.813 25.1523 113.339 24.5254C112.864 23.8984 112.173 23.585 111.265 23.585H110.228Z" fill="white"/>
<defs>
<linearGradient id="paint0_linear" x1="-36.2234" y1="-2.89151e-07" x2="99.2662" y2="145.073" gradientUnits="userSpaceOnUse">
<stop stop-color="#4BD8B5"/>
<stop offset="1" stop-color="#49D6DF"/>
</linearGradient>
</defs>
</svg>
