<svg width="279" height="55" viewBox="0 0 279 55" fill="none" xmlns="http://www.w3.org/2000/svg">
<rect x="4" width="275" height="55" rx="3" fill="url(#paint0_linear)"/>
<path d="M31.3906 34V21.2031H35.1699C36.3008 21.2031 37.3027 21.4551 38.1758 21.959C39.0547 22.4629 39.7344 23.1777 40.2148 24.1035C40.6953 25.0293 40.9355 26.0898 40.9355 27.2852V27.9268C40.9355 29.1396 40.6924 30.2061 40.2061 31.126C39.7256 32.0459 39.0371 32.7549 38.1406 33.2529C37.25 33.751 36.2275 34 35.0732 34H31.3906ZM33.6143 22.9961V32.2246H35.0645C36.2305 32.2246 37.124 31.8613 37.7451 31.1348C38.3721 30.4023 38.6914 29.3535 38.7031 27.9883V27.2764C38.7031 25.8877 38.4014 24.8271 37.7979 24.0947C37.1943 23.3623 36.3184 22.9961 35.1699 22.9961H33.6143ZM53.3633 27.9355C53.3633 29.1895 53.1465 30.291 52.7129 31.2402C52.2793 32.1836 51.6582 32.9102 50.8496 33.4199C50.0469 33.9238 49.1211 34.1758 48.0723 34.1758C47.0352 34.1758 46.1094 33.9238 45.2949 33.4199C44.4863 32.9102 43.8594 32.1865 43.4141 31.249C42.9746 30.3115 42.752 29.2305 42.7461 28.0059V27.2852C42.7461 26.0371 42.9658 24.9355 43.4053 23.9805C43.8506 23.0254 44.4746 22.2959 45.2773 21.792C46.0859 21.2822 47.0117 21.0273 48.0547 21.0273C49.0977 21.0273 50.0205 21.2793 50.8232 21.7832C51.6318 22.2812 52.2559 23.002 52.6953 23.9453C53.1348 24.8828 53.3574 25.9756 53.3633 27.2236V27.9355ZM51.1396 27.2676C51.1396 25.8496 50.8701 24.7627 50.3311 24.0068C49.7979 23.251 49.0391 22.873 48.0547 22.873C47.0938 22.873 46.3408 23.251 45.7959 24.0068C45.2568 24.7568 44.9814 25.8203 44.9697 27.1973V27.9355C44.9697 29.3418 45.2422 30.4287 45.7871 31.1963C46.3379 31.9639 47.0996 32.3477 48.0723 32.3477C49.0566 32.3477 49.8125 31.9727 50.3398 31.2227C50.873 30.4727 51.1396 29.377 51.1396 27.9355V27.2676ZM65.7295 34H63.5059L57.8018 24.9209V34H55.5781V21.2031H57.8018L63.5234 30.3174V21.2031H65.7295V34ZM75.6787 31.0205H70.7217L69.6846 34H67.373L72.207 21.2031H74.2021L79.0449 34H76.7246L75.6787 31.0205ZM71.3457 29.2275H75.0547L73.2002 23.9189L71.3457 29.2275ZM88.6953 22.9961H84.7051V34H82.499V22.9961H78.5439V21.2031H88.6953V22.9961ZM97.8623 28.2871H92.6064V32.2246H98.75V34H90.3828V21.2031H98.6885V22.9961H92.6064V26.5293H97.8623V28.2871ZM112.417 28.5771H107.267V34H105.043V21.2031H113.173V22.9961H107.267V26.8018H112.417V28.5771ZM125.152 27.9355C125.152 29.1895 124.936 30.291 124.502 31.2402C124.068 32.1836 123.447 32.9102 122.639 33.4199C121.836 33.9238 120.91 34.1758 119.861 34.1758C118.824 34.1758 117.898 33.9238 117.084 33.4199C116.275 32.9102 115.648 32.1865 115.203 31.249C114.764 30.3115 114.541 29.2305 114.535 28.0059V27.2852C114.535 26.0371 114.755 24.9355 115.194 23.9805C115.64 23.0254 116.264 22.2959 117.066 21.792C117.875 21.2822 118.801 21.0273 119.844 21.0273C120.887 21.0273 121.81 21.2793 122.612 21.7832C123.421 22.2812 124.045 23.002 124.484 23.9453C124.924 24.8828 125.146 25.9756 125.152 27.2236V27.9355ZM122.929 27.2676C122.929 25.8496 122.659 24.7627 122.12 24.0068C121.587 23.251 120.828 22.873 119.844 22.873C118.883 22.873 118.13 23.251 117.585 24.0068C117.046 24.7568 116.771 25.8203 116.759 27.1973V27.9355C116.759 29.3418 117.031 30.4287 117.576 31.1963C118.127 31.9639 118.889 32.3477 119.861 32.3477C120.846 32.3477 121.602 31.9727 122.129 31.2227C122.662 30.4727 122.929 29.377 122.929 27.9355V27.2676ZM132.069 29.0693H129.591V34H127.367V21.2031H131.867C133.344 21.2031 134.483 21.5342 135.286 22.1963C136.089 22.8584 136.49 23.8164 136.49 25.0703C136.49 25.9258 136.282 26.6436 135.866 27.2236C135.456 27.7979 134.882 28.2402 134.144 28.5508L137.018 33.8857V34H134.636L132.069 29.0693ZM129.591 27.2852H131.876C132.626 27.2852 133.212 27.0977 133.634 26.7227C134.056 26.3418 134.267 25.8232 134.267 25.167C134.267 24.4814 134.07 23.9512 133.678 23.5762C133.291 23.2012 132.711 23.0078 131.938 22.9961H129.591V27.2852ZM147.591 31.2139L150.843 21.2031H153.286L148.681 34H146.527L141.939 21.2031H144.374L147.591 31.2139ZM164.826 27.9355C164.826 29.1895 164.609 30.291 164.176 31.2402C163.742 32.1836 163.121 32.9102 162.312 33.4199C161.51 33.9238 160.584 34.1758 159.535 34.1758C158.498 34.1758 157.572 33.9238 156.758 33.4199C155.949 32.9102 155.322 32.1865 154.877 31.249C154.438 30.3115 154.215 29.2305 154.209 28.0059V27.2852C154.209 26.0371 154.429 24.9355 154.868 23.9805C155.313 23.0254 155.938 22.2959 156.74 21.792C157.549 21.2822 158.475 21.0273 159.518 21.0273C160.561 21.0273 161.483 21.2793 162.286 21.7832C163.095 22.2812 163.719 23.002 164.158 23.9453C164.598 24.8828 164.82 25.9756 164.826 27.2236V27.9355ZM162.603 27.2676C162.603 25.8496 162.333 24.7627 161.794 24.0068C161.261 23.251 160.502 22.873 159.518 22.873C158.557 22.873 157.804 23.251 157.259 24.0068C156.72 24.7568 156.444 25.8203 156.433 27.1973V27.9355C156.433 29.3418 156.705 30.4287 157.25 31.1963C157.801 31.9639 158.562 32.3477 159.535 32.3477C160.52 32.3477 161.275 31.9727 161.803 31.2227C162.336 30.4727 162.603 29.377 162.603 27.9355V27.2676ZM169.265 32.2246H175.074V34H167.041V21.2031H169.265V32.2246ZM185.929 21.2031V29.7549C185.929 31.1143 185.492 32.1924 184.619 32.9893C183.752 33.7803 182.595 34.1758 181.147 34.1758C179.683 34.1758 178.52 33.7861 177.658 33.0068C176.797 32.2217 176.366 31.1348 176.366 29.7461V21.2031H178.581V29.7637C178.581 30.6191 178.798 31.2725 179.231 31.7236C179.665 32.1748 180.304 32.4004 181.147 32.4004C182.858 32.4004 183.714 31.498 183.714 29.6934V21.2031H185.929ZM198.462 34H196.238L190.534 24.9209V34H188.311V21.2031H190.534L196.256 30.3174V21.2031H198.462V34ZM210.072 22.9961H206.082V34H203.876V22.9961H199.921V21.2031H210.072V22.9961ZM219.239 28.2871H213.983V32.2246H220.127V34H211.76V21.2031H220.065V22.9961H213.983V26.5293H219.239V28.2871ZM229.417 28.2871H224.161V32.2246H230.305V34H221.938V21.2031H230.243V22.9961H224.161V26.5293H229.417V28.2871ZM236.817 29.0693H234.339V34H232.115V21.2031H236.615C238.092 21.2031 239.231 21.5342 240.034 22.1963C240.837 22.8584 241.238 23.8164 241.238 25.0703C241.238 25.9258 241.03 26.6436 240.614 27.2236C240.204 27.7979 239.63 28.2402 238.892 28.5508L241.766 33.8857V34H239.384L236.817 29.0693ZM234.339 27.2852H236.624C237.374 27.2852 237.96 27.0977 238.382 26.7227C238.804 26.3418 239.015 25.8232 239.015 25.167C239.015 24.4814 238.818 23.9512 238.426 23.5762C238.039 23.2012 237.459 23.0078 236.686 22.9961H234.339V27.2852ZM250.036 30.7041C250.036 30.1416 249.837 29.708 249.438 29.4033C249.046 29.0986 248.334 28.791 247.303 28.4805C246.271 28.1699 245.451 27.8242 244.842 27.4434C243.676 26.7109 243.093 25.7559 243.093 24.5781C243.093 23.5469 243.512 22.6973 244.35 22.0293C245.193 21.3613 246.286 21.0273 247.628 21.0273C248.519 21.0273 249.312 21.1914 250.01 21.5195C250.707 21.8477 251.255 22.3164 251.653 22.9258C252.052 23.5293 252.251 24.2002 252.251 24.9385H250.036C250.036 24.2705 249.825 23.749 249.403 23.374C248.987 22.9932 248.39 22.8027 247.61 22.8027C246.884 22.8027 246.318 22.958 245.914 23.2686C245.516 23.5791 245.316 24.0127 245.316 24.5693C245.316 25.0381 245.533 25.4307 245.967 25.7471C246.4 26.0576 247.115 26.3623 248.111 26.6611C249.107 26.9541 249.907 27.291 250.511 27.6719C251.114 28.0469 251.557 28.4805 251.838 28.9727C252.119 29.459 252.26 30.0303 252.26 30.6865C252.26 31.7529 251.85 32.6025 251.029 33.2354C250.215 33.8623 249.107 34.1758 247.707 34.1758C246.781 34.1758 245.929 34.0059 245.149 33.666C244.376 33.3203 243.772 32.8457 243.339 32.2422C242.911 31.6387 242.697 30.9355 242.697 30.1328H244.921C244.921 30.8594 245.161 31.4219 245.642 31.8203C246.122 32.2188 246.811 32.418 247.707 32.418C248.48 32.418 249.061 32.2627 249.447 31.9521C249.84 31.6357 250.036 31.2197 250.036 30.7041Z" fill="white"/>
<defs>
<linearGradient id="paint0_linear" x1="-47.3477" y1="-2.89151e-07" x2="77.4372" y2="189.398" gradientUnits="userSpaceOnUse">
<stop stop-color="#4BD8B5"/>
<stop offset="1" stop-color="#49D6DF"/>
</linearGradient>
</defs>
</svg>
