<svg width="68" height="94" viewBox="0 0 68 94" fill="none" xmlns="http://www.w3.org/2000/svg">
<path d="M34.034 0.496094C15.8009 0.496094 0.967773 15.331 0.967773 33.5663C0.967773 51.2064 31.1981 91.3966 32.4859 93.1007C32.8477 93.5871 33.4274 93.871 34.0342 93.871C34.6411 93.871 35.2208 93.5871 35.5826 93.1007C36.8701 91.3966 67.1007 51.2065 67.1007 33.5663C67.1003 15.331 52.2671 0.496094 34.034 0.496094ZM34.034 51.0741C24.3826 51.0741 16.5283 43.219 16.5283 33.5663C16.5283 23.9137 24.3826 16.0585 34.034 16.0585C43.6855 16.0585 51.5397 23.9137 51.5397 33.5663C51.5397 43.219 43.6855 51.0741 34.034 51.0741Z" fill="url(#paint0_linear)"/>
<defs>
<linearGradient id="paint0_linear" x1="-11.3805" y1="0.496093" x2="83.379" y2="20.869" gradientUnits="userSpaceOnUse">
<stop stop-color="#4BD8B5"/>
<stop offset="1" stop-color="#49D6DF"/>
</linearGradient>
</defs>
</svg>
